HIERARCHY
ROOT Hips
{
	OFFSET 0.000000 97.167313 0.000000
	CHANNELS 6 Xposition Yposition Zposition Xrotation Yrotation Zrotation
	JOINT Spine
	{
		OFFSET 0.000000 13.784798 0.064400
		CHANNELS 3 Xrotation Yrotation Zrotation
		JOINT Spine1
		{
			OFFSET 0.000000 12.037903 0.404700
			CHANNELS 3 Xrotation Yrotation Zrotation
			JOINT Spine2
			{
				OFFSET 0.000000 17.795601 0.420200
				CHANNELS 3 Xrotation Yrotation Zrotation
				JOINT Neck
				{
					OFFSET 0.000000 39.131302 11.954600
					CHANNELS 3 Xrotation Yrotation Zrotation
					JOINT Head
					{
						OFFSET 0.000000 14.456192 15.627699
						CHANNELS 3 Xrotation Yrotation Zrotation
						JOINT HeadTop_End
						{
							OFFSET 0.000000 15.703506 7.603401
							CHANNELS 3 Xrotation Yrotation Zrotation
							End Site
							{
								OFFSET 0.000000 17.447403 0.000000
							}
						}
					}
				}
				JOINT LeftShoulder
				{
					OFFSET 17.399500 24.608795 1.168800
					CHANNELS 3 Xrotation Yrotation Zrotation
					JOINT LeftArm
					{
						OFFSET 18.980635 5.765305 1.818600
						CHANNELS 3 Xrotation Yrotation Zrotation
						JOINT LeftForeArm
						{
							OFFSET 49.290169 0.000000 0.000000
							CHANNELS 3 Xrotation Yrotation Zrotation
							JOINT LeftHand
							{
								OFFSET 31.562012 0.000000 0.000000
								CHANNELS 3 Xrotation Yrotation Zrotation
								JOINT LeftHandThumb1
								{
									OFFSET 6.133995 -4.388519 7.076070
									CHANNELS 3 Xrotation Yrotation Zrotation
									JOINT LeftHandThumb2
									{
										OFFSET 6.037666 -3.485840 3.485847
										CHANNELS 3 Xrotation Yrotation Zrotation
										JOINT LeftHandThumb3
										{
											OFFSET 6.496506 -3.750763 3.750761
											CHANNELS 3 Xrotation Yrotation Zrotation
											JOINT LeftHandThumb4
											{
												OFFSET 5.616882 -3.242905 3.242910
												CHANNELS 3 Xrotation Yrotation Zrotation
												End Site
												{
													OFFSET -1.254608 7.132141 0.375429
												}
											}
										}
									}
								}
								JOINT LeftHandPinky1
								{
									OFFSET 18.920792 -0.453171 -11.426712
									CHANNELS 3 Xrotation Yrotation Zrotation
									JOINT LeftHandPinky2
									{
										OFFSET 4.919586 0.000000 0.000000
										CHANNELS 3 Xrotation Yrotation Zrotation
										JOINT LeftHandPinky3
										{
											OFFSET 5.233047 0.000000 0.000000
											CHANNELS 3 Xrotation Yrotation Zrotation
											JOINT LeftHandPinky4
											{
												OFFSET 5.571716 0.000000 0.000000
												CHANNELS 3 Xrotation Yrotation Zrotation
												End Site
												{
													OFFSET -3.459808 4.342407 -0.466164
												}
											}
										}
									}
								}
								JOINT LeftHandRing1
								{
									OFFSET 22.726120 -0.094986 -6.500475
									CHANNELS 3 Xrotation Yrotation Zrotation
									JOINT LeftHandRing2
									{
										OFFSET 6.408615 0.000000 0.000000
										CHANNELS 3 Xrotation Yrotation Zrotation
										JOINT LeftHandRing3
										{
											OFFSET 6.150223 0.000000 0.000000
											CHANNELS 3 Xrotation Yrotation Zrotation
											JOINT LeftHandRing4
											{
												OFFSET 6.145386 0.000000 0.000000
												CHANNELS 3 Xrotation Yrotation Zrotation
												End Site
												{
													OFFSET -3.671402 4.923981 -0.202372
												}
											}
										}
									}
								}
								JOINT LeftHandMiddle1
								{
									OFFSET 23.373947 0.000000 0.000001
									CHANNELS 3 Xrotation Yrotation Zrotation
									JOINT LeftHandMiddle2
									{
										OFFSET 6.996567 0.000000 0.000000
										CHANNELS 3 Xrotation Yrotation Zrotation
										JOINT LeftHandMiddle3
										{
											OFFSET 7.015945 0.000000 0.000000
											CHANNELS 3 Xrotation Yrotation Zrotation
											JOINT LeftHandMiddle4
											{
												OFFSET 7.721573 0.000000 0.000000
												CHANNELS 3 Xrotation Yrotation Zrotation
												End Site
												{
													OFFSET -4.651108 6.158463 0.251582
												}
											}
										}
									}
								}
								JOINT LeftHandIndex1
								{
									OFFSET 21.310577 -0.490082 6.209344
									CHANNELS 3 Xrotation Yrotation Zrotation
									JOINT LeftHandIndex2
									{
										OFFSET 7.536453 0.000000 0.000000
										CHANNELS 3 Xrotation Yrotation Zrotation
										JOINT LeftHandIndex3
										{
											OFFSET 7.512344 0.000000 0.000000
											CHANNELS 3 Xrotation Yrotation Zrotation
											JOINT LeftHandIndex4
											{
												OFFSET 10.212402 0.000000 0.000001
												CHANNELS 3 Xrotation Yrotation Zrotation
												End Site
												{
													OFFSET -5.180801 8.690506 1.388433
												}
											}
										}
									}
								}
							}
						}
					}
				}
				JOINT RightShoulder
				{
					OFFSET -17.399500 24.608795 1.168800
					CHANNELS 3 Xrotation Yrotation Zrotation
					JOINT RightArm
					{
						OFFSET -18.980635 5.765305 1.818600
						CHANNELS 3 Xrotation Yrotation Zrotation
						JOINT RightForeArm
						{
							OFFSET -49.290169 0.000000 0.000000
							CHANNELS 3 Xrotation Yrotation Zrotation
							JOINT RightHand
							{
								OFFSET -31.562012 0.000000 0.000000
								CHANNELS 3 Xrotation Yrotation Zrotation
								JOINT RightHandThumb1
								{
									OFFSET -6.133995 -4.388519 7.076070
									CHANNELS 3 Xrotation Yrotation Zrotation
									JOINT RightHandThumb2
									{
										OFFSET -6.037666 -3.485840 3.485847
										CHANNELS 3 Xrotation Yrotation Zrotation
										JOINT RightHandThumb3
										{
											OFFSET -6.496506 -3.750763 3.750761
											CHANNELS 3 Xrotation Yrotation Zrotation
											JOINT RightHandThumb4
											{
												OFFSET -5.616882 -3.242905 3.242910
												CHANNELS 3 Xrotation Yrotation Zrotation
												End Site
												{
													OFFSET 1.254608 7.132141 0.375429
												}
											}
										}
									}
								}
								JOINT RightHandIndex1
								{
									OFFSET -21.310577 -0.490082 6.209344
									CHANNELS 3 Xrotation Yrotation Zrotation
									JOINT RightHandIndex2
									{
										OFFSET -7.536453 0.000000 0.000000
										CHANNELS 3 Xrotation Yrotation Zrotation
										JOINT RightHandIndex3
										{
											OFFSET -7.512344 0.000000 0.000000
											CHANNELS 3 Xrotation Yrotation Zrotation
											JOINT RightHandIndex4
											{
												OFFSET -10.212402 0.000000 0.000001
												CHANNELS 3 Xrotation Yrotation Zrotation
												End Site
												{
													OFFSET 5.180801 8.690506 1.388433
												}
											}
										}
									}
								}
								JOINT RightHandMiddle1
								{
									OFFSET -23.373947 0.000000 0.000001
									CHANNELS 3 Xrotation Yrotation Zrotation
									JOINT RightHandMiddle2
									{
										OFFSET -6.996567 0.000000 0.000000
										CHANNELS 3 Xrotation Yrotation Zrotation
										JOINT RightHandMiddle3
										{
											OFFSET -7.015945 0.000000 0.000000
											CHANNELS 3 Xrotation Yrotation Zrotation
											JOINT RightHandMiddle4
											{
												OFFSET -7.721573 0.000000 0.000000
												CHANNELS 3 Xrotation Yrotation Zrotation
												End Site
												{
													OFFSET 4.651108 6.158463 0.251582
												}
											}
										}
									}
								}
								JOINT RightHandRing1
								{
									OFFSET -22.726120 -0.094986 -6.500475
									CHANNELS 3 Xrotation Yrotation Zrotation
									JOINT RightHandRing2
									{
										OFFSET -6.408615 0.000000 0.000000
										CHANNELS 3 Xrotation Yrotation Zrotation
										JOINT RightHandRing3
										{
											OFFSET -6.150223 0.000000 0.000000
											CHANNELS 3 Xrotation Yrotation Zrotation
											JOINT RightHandRing4
											{
												OFFSET -6.145386 0.000000 0.000000
												CHANNELS 3 Xrotation Yrotation Zrotation
												End Site
												{
													OFFSET 3.671402 4.923981 -0.202372
												}
											}
										}
									}
								}
								JOINT RightHandPinky1
								{
									OFFSET -18.920792 -0.453171 -11.426712
									CHANNELS 3 Xrotation Yrotation Zrotation
									JOINT RightHandPinky2
									{
										OFFSET -4.919586 0.000000 0.000000
										CHANNELS 3 Xrotation Yrotation Zrotation
										JOINT RightHandPinky3
										{
											OFFSET -5.233047 0.000000 0.000000
											CHANNELS 3 Xrotation Yrotation Zrotation
											JOINT RightHandPinky4
											{
												OFFSET -5.571716 0.000000 0.000000
												CHANNELS 3 Xrotation Yrotation Zrotation
												End Site
												{
													OFFSET 3.459808 4.342407 -0.466164
												}
											}
										}
									}
								}
							}
						}
					}
				}
			}
		}
	}
	JOINT LeftUpLeg
	{
		OFFSET 19.899099 -7.885101 -3.429500
		CHANNELS 3 Xrotation Yrotation Zrotation
		JOINT LeftLeg
		{
			OFFSET 1.745560 -36.997807 10.304700
			CHANNELS 3 Xrotation Yrotation Zrotation
			JOINT LeftFoot
			{
				OFFSET -1.745558 -29.803308 -13.615400
				CHANNELS 3 Xrotation Yrotation Zrotation
				JOINT LeftToeBase
				{
					OFFSET 1.181900 -18.539904 15.226099
					CHANNELS 3 Xrotation Yrotation Zrotation
					JOINT LeftToe_End
					{
						OFFSET -0.863701 1.402801 16.534700
						CHANNELS 3 Xrotation Yrotation Zrotation
						End Site
						{
							OFFSET 0.000000 16.616566 0.000000
						}
					}
				}
			}
		}
	}
	JOINT RightUpLeg
	{
		OFFSET -19.899099 -7.885101 -3.429500
		CHANNELS 3 Xrotation Yrotation Zrotation
		JOINT RightLeg
		{
			OFFSET -1.745560 -36.997807 10.304700
			CHANNELS 3 Xrotation Yrotation Zrotation
			JOINT RightFoot
			{
				OFFSET 1.745558 -29.803308 -13.615400
				CHANNELS 3 Xrotation Yrotation Zrotation
				JOINT RightToeBase
				{
					OFFSET -1.181900 -18.539904 15.226099
					CHANNELS 3 Xrotation Yrotation Zrotation
					JOINT RightToe_End
					{
						OFFSET 0.863701 1.402801 16.534700
						CHANNELS 3 Xrotation Yrotation Zrotation
						End Site
						{
							OFFSET 0.000000 16.616566 0.000000
						}
					}
				}
			}
		}
	}
}
MOTION
Frames: 4
Frame Time: 0.033333
0.512409 93.391289 4.780211 -5.074451 -2.907432 -2.227215 4.666837 4.273108 1.318264 14.197278 1.234921 -0.118145 14.203265 1.219063 -0.171371 2.226501 -0.752366 -0.122057 17.974855 -4.587936 3.573954 0.000003 0.000000 0.000000 3.004981 -10.296231 -19.109973 -21.484560 -17.835709 -59.179744 0.000002 -4.943457 -0.000019 -1.490710 -1.146140 -6.789117 -0.266439 4.548709 10.792700 13.875171 5.753824 11.032857 -1.944180 -26.836317 16.113984 -0.000000 -0.000001 0.000000 1.009039 5.685177 -27.964727 0.942750 3.188770 -32.932939 0.314348 1.894966 -18.835852 -0.000000 0.000002 -0.000004 2.287316 9.101370 -21.286167 1.610509 4.035143 -43.502059 0.529382 2.435492 -24.522529 -0.000000 0.000002 0.000003 1.737566 7.913927 -20.174226 0.649070 2.682153 -27.202905 0.584608 2.552986 -25.791617 -0.000000 0.000000 0.000008 0.638718 4.366508 -17.731267 0.730425 2.834678 -28.893411 0.322081 1.917478 -19.068471 -0.000004 0.000003 0.000002 0.888855 10.012680 22.117290 -17.719483 12.648175 56.189692 -0.000002 4.933705 -0.000006 0.376107 1.121395 3.490254 -6.439872 1.666963 -14.227992 18.794015 -22.355291 8.717703 -18.441654 14.776699 -9.848384 -0.000001 -0.000001 0.000002 -1.121753 2.644345 18.121103 0.832158 -2.658767 34.753655 0.587959 -2.267018 29.075473 -0.000002 -0.000001 0.000001 -1.289366 0.277925 21.429847 1.275853 -3.204347 43.412484 0.471373 -2.043472 25.976355 0.000000 0.000005 -0.000009 0.022764 -3.022650 19.748937 1.752413 -3.641836 51.381054 0.418136 -1.930445 24.440852 -0.000001 0.000000 -0.000005 -12.543510 -11.329103 17.331130 1.235357 -3.161052 42.683109 0.371557 -1.824556 23.019448 0.000000 -0.000002 0.000005 -4.909663 9.071126 7.041788 18.055252 -9.382668 3.653364 -10.138082 -4.726339 -5.764847 0.425429 -0.000000 -0.000001 -0.000000 -0.000000 -0.000000 -8.122366 -5.528058 -1.284227 14.617045 9.675666 -2.213772 -2.470593 12.501524 0.451712 0.164141 -0.000689 0.319272 0.000000 -0.000001 0.000000 
0.519004 93.321655 4.759933 -5.143807 -2.890327 -2.211167 4.750969 4.273206 1.296656 14.246228 1.236098 -0.119481 14.252297 1.221008 -0.173030 2.231053 -0.753754 -0.120543 17.900888 -4.608880 3.592331 -0.000000 0.000000 -0.000000 2.994336 -10.379614 -19.224377 -21.463945 -17.865253 -59.006312 -0.000005 -5.023931 -0.000026 -1.691151 -1.205944 -6.793218 -0.266441 4.548710 10.792702 13.829648 5.650062 11.086634 -1.999812 -26.865383 16.183964 -0.000001 0.000003 -0.000002 1.003364 5.676669 -27.954904 0.942916 3.189036 -32.935865 0.314642 1.895839 -18.844818 0.000000 0.000002 -0.000002 2.287037 9.094167 -21.314304 1.609181 4.033747 -43.483279 0.529897 2.436626 -24.534714 -0.000001 0.000003 0.000003 1.728425 7.883866 -20.205107 0.649758 2.683490 -27.217617 0.585588 2.555020 -25.813638 0.000001 -0.000000 0.000008 0.599180 4.321975 -17.821172 0.733249 2.839789 -28.950488 0.323718 1.922193 -19.117104 -0.000001 0.000001 0.000001 0.885117 10.017409 22.221687 -17.785068 12.648520 56.065615 0.000007 4.959475 0.000008 0.274458 1.152149 3.456500 -6.439868 1.666965 -14.227992 18.344394 -21.712908 8.251366 -18.465244 15.047219 -10.171612 0.000000 -0.000001 -0.000004 -1.124824 2.640545 18.152701 0.830968 -2.657048 34.727820 0.587634 -2.266444 29.067417 -0.000000 -0.000001 -0.000001 -1.298018 0.284840 21.500047 1.277759 -3.206355 43.446598 0.471928 -2.044608 25.991899 -0.000001 0.000001 -0.000009 0.004672 -2.976194 19.832421 1.752420 -3.641837 51.381058 0.417804 -1.929717 24.431011 -0.000001 -0.000001 -0.000003 -12.597843 -11.315090 17.301668 1.235953 -3.161697 42.693924 0.371672 -1.824812 23.022846 -0.000001 -0.000003 0.000000 -4.955847 9.056990 7.030295 18.281826 -9.397428 3.643079 -10.237048 -4.723177 -5.731017 0.411228 -0.000006 -0.000000 -0.000000 0.000001 -0.000000 -8.188467 -5.525862 -1.317971 14.898367 9.659337 -2.232306 -2.615767 12.501755 0.439661 0.164234 -0.000702 0.319390 0.000000 -0.000000 0.000000 
0.522199 93.251053 4.741769 -5.199292 -2.886840 -2.190863 4.819559 4.281755 1.275750 14.292669 1.238881 -0.122151 14.298801 1.224038 -0.174858 2.241223 -0.756742 -0.120956 17.842741 -4.641088 3.606526 0.000002 -0.000000 -0.000000 2.981736 -10.459084 -19.349677 -21.463263 -17.892611 -58.831548 -0.000000 -5.061906 0.000010 -1.878403 -1.236664 -6.774166 -0.266448 4.548710 10.792700 13.842901 5.680350 11.070706 -1.970878 -26.847184 16.135427 0.000001 0.000002 0.000002 0.996953 5.667154 -27.951453 0.943144 3.189382 -32.939964 0.314678 1.895935 -18.845800 -0.000000 0.000001 -0.000007 2.283931 9.079481 -21.344281 1.607903 4.032398 -43.465084 0.529609 2.435991 -24.527901 -0.000001 -0.000001 0.000008 1.725095 7.865438 -20.257274 0.649982 2.683928 -27.222498 0.585908 2.555676 -25.820859 -0.000003 -0.000000 0.000001 0.588665 4.314645 -17.933420 0.738914 2.849984 -29.064627 0.324328 1.923965 -19.135475 -0.000001 0.000003 0.000002 0.879513 10.021898 22.326826 -17.847996 12.616029 55.972126 0.000006 4.957368 -0.000006 0.192526 1.147339 3.394981 -6.439871 1.666964 -14.227991 17.907492 -21.067782 7.795188 -18.487010 15.311889 -10.484848 0.000002 -0.000000 -0.000002 -1.120679 2.630377 18.136333 0.832503 -2.659265 34.761032 0.586066 -2.263602 29.027525 -0.000002 -0.000003 -0.000001 -1.306611 0.294605 21.556268 1.279894 -3.208607 43.484765 0.471931 -2.044615 25.991892 0.000001 0.000002 0.000003 -0.013395 -2.928640 19.884047 1.751911 -3.641433 51.373114 0.417286 -1.928573 24.415537 0.000002 0.000002 -0.000005 -12.651921 -11.300223 17.264032 1.236544 -3.162344 42.704754 0.371623 -1.824694 23.021217 0.000002 -0.000002 0.000009 -5.015590 9.040360 7.012311 18.501707 -9.425195 3.638785 -10.319362 -4.722101 -5.699395 0.397587 0.000006 -0.000001 0.000000 -0.000000 -0.000000 -8.275551 -5.521325 -1.356680 15.179616 9.657807 -2.243642 -2.753449 12.502975 0.430536 0.164131 -0.000695 0.319310 0.000000 0.000000 0.000000 
0.521061 93.191788 4.725137 -5.232110 -2.884093 -2.169204 4.862897 4.296114 1.252151 14.331417 1.242894 -0.128154 14.337528 1.227888 -0.176619 2.257715 -0.763163 -0.119952 17.821579 -4.689574 3.634806 0.000000 0.000000 -0.000000 2.968315 -10.527994 -19.461355 -21.492601 -17.909004 -58.687410 -0.000003 -5.062695 0.000003 -2.015838 -1.230237 -6.717289 -0.266447 4.548711 10.792700 13.884072 5.774005 11.022237 -1.898834 -26.804434 16.023735 0.000000 -0.000001 -0.000003 0.991494 5.659717 -27.955061 0.943977 3.190658 -32.954850 0.314295 1.894810 -18.834284 0.000000 0.000001 -0.000004 2.276176 9.056688 -21.359197 1.607226 4.031686 -43.455460 0.528570 2.433721 -24.503433 0.000001 -0.000000 0.000002 1.726134 7.859855 -20.303176 0.649567 2.683124 -27.213623 0.585306 2.554445 -25.807344 0.000000 0.000002 0.000007 0.592933 4.325111 -18.039298 0.746838 2.864176 -29.223507 0.323971 1.922942 -19.124962 0.000002 -0.000002 0.000001 0.871055 10.031184 22.418662 -17.892871 12.543146 55.925159 -0.000001 4.937311 -0.000028 0.085250 1.124197 3.284343 -6.439870 1.666965 -14.227992 17.638491 -20.659850 7.512864 -18.523106 15.555244 -10.728110 -0.000001 0.000000 0.000004 -1.118268 2.627197 18.112711 0.834805 -2.662564 34.810530 0.584583 -2.260955 28.990219 -0.000002 0.000000 -0.000001 -1.313668 0.306315 21.585443 1.280721 -3.209483 43.499603 0.471238 -2.043202 25.972537 0.000001 0.000000 -0.000008 -0.022497 -2.903440 19.884390 1.751560 -3.641151 51.367773 0.416881 -1.927686 24.403549 -0.000000 0.000002 -0.000001 -12.680869 -11.292967 17.239094 1.236355 -3.162141 42.701328 0.371243 -1.823798 23.009251 0.000001 0.000001 0.000002 -5.066084 9.025683 7.000335 18.677029 -9.420240 3.636214 -10.402070 -4.717236 -5.689796 0.392890 -0.000004 0.000002 -0.000000 -0.000001 -0.000000 -8.370213 -5.513143 -1.384391 15.430429 9.652754 -2.253824 -2.872870 12.503787 0.387233 0.163920 -0.000694 0.318937 0.000000 0.000001 0.000000 
